<svg xmlns="http://www.w3.org/2000/svg" xmlns:xlink="http://www.w3.org/1999/xlink" width="28.782" height="16.789" viewBox="0 0 28.782 16.789"><defs><style>.a{fill:none;}.b{clip-path:url(#a);}.c{fill:#fff;}.d{fill:#bd1f37;}.e{fill:#2d2f77;}</style><clipPath id="a"><rect class="a" width="28.782" height="16.789"/></clipPath></defs><g transform="translate(0 0)"><g class="b"><rect class="c" width="28.782" height="16.789"/><g transform="translate(17.283)"><path class="d" d="M178.368,237.036l9.51-5.323v-.747h-.655l-10.844,6.07Z" transform="translate(-176.379 -230.966)"/></g><g transform="translate(18.823 11.055)"><path class="d" d="M178.505,246.227l9.959,5.574v-1.114l-7.969-4.461Z" transform="translate(-178.505 -246.227)"/></g><g transform="translate(0 0.163)"><path class="d" d="M152.522,232.306l8.52,4.792h1.99l-10.51-5.907Z" transform="translate(-152.522 -231.191)"/></g><g transform="translate(0 11.055)"><path class="d" d="M162.581,246.227l-10.059,5.636v.1h1.817l10.233-5.734Z" transform="translate(-152.522 -246.227)"/></g><g transform="translate(16.735)"><path class="e" d="M185.7,230.966H175.623v5.644Z" transform="translate(-175.623 -230.966)"/></g><g transform="translate(2.249)"><path class="e" d="M165.664,230.966H155.626l10.037,5.644Z" transform="translate(-155.626 -230.966)"/></g><g transform="translate(21.946 2.219)"><path class="e" d="M189.652,237.88v-3.851l-6.836,3.851Z" transform="translate(-182.816 -234.029)"/></g><g transform="translate(21.946 11.055)"><path class="e" d="M189.652,250.038v-3.811h-6.836Z" transform="translate(-182.816 -246.227)"/></g><g transform="translate(2.818 11.484)"><path class="e" d="M156.413,252.123h9.468v-5.3Z" transform="translate(-156.413 -246.819)"/></g><g transform="translate(16.735 11.484)"><path class="e" d="M175.623,252.123h9.5l-9.5-5.3Z" transform="translate(-175.623 -246.819)"/></g><g transform="translate(0 11.055)"><path class="e" d="M152.522,246.227v3.982l7.074-3.982Z" transform="translate(-152.522 -246.227)"/></g><g transform="translate(0 2.082)"><path class="e" d="M152.522,237.828H159.6l-7.074-3.988Z" transform="translate(-152.522 -233.841)"/></g><path class="d" d="M165.7,230.966v7.068H152.522v2.993H165.7v6.728h2.669v-6.728H181.3v-2.993H168.367v-7.068Z" transform="translate(-152.522 -230.966)"/></g></g></svg>